<svg width="28" height="28" viewBox="0 0 28 28" fill="none" xmlns="http://www.w3.org/2000/svg">
<path d="M22.9542 23.7263L23.5912 23.0893L21.4492 20.9462V17.7682H20.5509V21.3218L22.9542 23.7263ZM4.66669 23.3332V4.6665H23.3334V13.4935C23.1288 13.4227 22.9328 13.3652 22.7454 13.3208C22.5587 13.2773 22.3658 13.2337 22.1667 13.1902V5.83317H5.83335V22.1665H13.16C13.1888 22.3843 13.2254 22.5869 13.2697 22.7743C13.314 22.961 13.3712 23.1473 13.4412 23.3332H4.66669ZM5.83335 20.9998V22.1665V5.83317V13.1902V13.1027V20.9998ZM8.75002 18.9815H13.37C13.4128 18.7816 13.4711 18.5883 13.545 18.4017L13.7784 17.8137H8.75002V18.9815ZM8.75002 14.5832H16.4267C16.8101 14.3141 17.1877 14.0862 17.5595 13.8995C17.9313 13.7121 18.3303 13.5651 18.7565 13.4585V13.4165H8.75002V14.5832ZM8.75002 10.1848H19.25V9.01817H8.75002V10.1848ZM21 25.803C19.7004 25.803 18.5979 25.3499 17.6925 24.4438C16.7864 23.5377 16.3334 22.4348 16.3334 21.1352C16.3334 19.8355 16.7864 18.7326 17.6925 17.8265C18.5986 16.9204 19.7011 16.4677 21 16.4685C22.2989 16.4693 23.4018 16.9219 24.3087 17.8265C25.2156 18.7311 25.6682 19.8339 25.6667 21.1352C25.6667 22.4341 25.214 23.5366 24.3087 24.4427C23.4018 25.3488 22.2989 25.8018 21 25.8018" fill="#656565"/>
</svg>
